# xmcd
#
# Track frame offsets:
#	150
#	18119
#	31451
#	50468
#	65053
#	81585
#	95149
#	106141
#	117960
#	131601
#	143683
#	161355
#	173959
#	188146
#	198525
#	212482
#	231159
#	249568
#
# Disc length: 3535 seconds
#
# Revision: 1
# Processed by: cddbd v1.5.1PL0 Copyright (c) Steve Scherf et al.
# Submitted via: audiograbber 1.83.01
#
DISCID=fd0dcd12
DTITLE=Zolotoe_Koltso - Best
DYEAR=2000
DGENRE=
TTITLE0=Napilas ya piana
TTITLE1=Ocharovatelnye glazki
TTITLE2=Kray ti moy
TTITLE3=Yablonevyi vecher
TTITLE4=Vot kto to s gorochki 
TTITLE5=Nazivaut menya
TTITLE6=Ochi chernye
TTITLE7=Shumel kamysh
TTITLE8=Tiz menya pidmanula
TTITLE9=Korobeyniki
TTITLE10=Ne zaleu ne zovu
TTITLE11=Oy garna ya garna
TTITLE12=Okrasilsya mesiatc
TTITLE13=Ah samara gorodok
TTITLE14=Kostry goryat
TTITLE15=Shalnoe leto
TTITLE16=Raztcvela pod oknom
TTITLE17=Pechalnyi veter
EXTD=
EXTT0=
EXTT1=
EXTT2=
EXTT3=
EXTT4=
EXTT5=
EXTT6=
EXTT7=
EXTT8=
EXTT9=
EXTT10=
EXTT11=
EXTT12=
EXTT13=
EXTT14=
EXTT15=
EXTT16=
EXTT17=
PLAYORDER=
